<svg width="239" height="65" viewBox="0 0 239 65" fill="none" xmlns="http://www.w3.org/2000/svg">
<path d="M50.08 21.95C50.28 22.23 50.33 22.54 50.23 22.88L43.9 43.19C43.84 43.41 43.71 43.59 43.51 43.73C43.33 43.87 43.12 43.94 42.88 43.94H40.27C40.05 43.94 39.84 43.88 39.64 43.76C39.46 43.62 39.34 43.44 39.28 43.22L34.78 29.3L30.31 43.22C30.23 43.44 30.1 43.62 29.92 43.76C29.74 43.88 29.53 43.94 29.29 43.94H26.68C26.32 43.94 26.03 43.8 25.81 43.52C25.61 43.18 25.57 42.86 25.69 42.56L32.47 22.22C32.53 22 32.65 21.83 32.83 21.71C33.03 21.57 33.24 21.5 33.46 21.5H36.1C36.62 21.5 36.96 21.75 37.12 22.25L41.56 36.05L45.76 22.25C45.84 22.03 45.97 21.85 46.15 21.71C46.35 21.57 46.56 21.5 46.78 21.5H49.21C49.57 21.5 49.86 21.65 50.08 21.95ZM25.51 27.86C25.63 28.2 25.58 28.52 25.36 28.82C25.14 29.1 24.85 29.24 24.49 29.24H22.12C21.88 29.24 21.66 29.17 21.46 29.03C21.28 28.89 21.16 28.71 21.1 28.49L19.36 22.88C19.24 22.54 19.29 22.23 19.51 21.95C19.71 21.65 19.99 21.5 20.35 21.5H22.78C23.02 21.5 23.23 21.57 23.41 21.71C23.61 21.85 23.74 22.03 23.8 22.25L25.51 27.86ZM68.6727 21.5C68.9727 21.5 69.2227 21.61 69.4227 21.83C69.6227 22.03 69.7227 22.27 69.7227 22.55V24.71C69.7227 24.99 69.6227 25.24 69.4227 25.46C69.2227 25.66 68.9727 25.76 68.6727 25.76H57.3327V30.35H67.3527C67.6527 30.35 67.9027 30.46 68.1027 30.68C68.3027 30.88 68.4027 31.12 68.4027 31.4V33.59C68.4027 33.87 68.3027 34.12 68.1027 34.34C67.9027 34.54 67.6527 34.64 67.3527 34.64H57.3327V39.26H68.6727C68.9727 39.26 69.2227 39.37 69.4227 39.59C69.6227 39.79 69.7227 40.03 69.7227 40.31V42.47C69.7227 42.75 69.6227 43 69.4227 43.22C69.2227 43.42 68.9727 43.52 68.6727 43.52H54.0327C53.7527 43.52 53.5027 43.42 53.2827 43.22C53.0827 43 52.9827 42.75 52.9827 42.47V22.55C52.9827 22.27 53.0827 22.03 53.2827 21.83C53.5027 21.61 53.7527 21.5 54.0327 21.5H68.6727ZM89.0341 32.15C90.0341 32.81 90.7841 33.72 91.2841 34.88C91.5441 35.54 91.6741 36.33 91.6741 37.25C91.6741 38.69 91.2941 39.9 90.5341 40.88C89.7741 41.86 88.6441 42.58 87.1441 43.04C86.2441 43.36 85.1441 43.52 83.8441 43.52H74.3941C74.1141 43.52 73.8641 43.42 73.6441 43.22C73.4441 43 73.3441 42.75 73.3441 42.47V22.55C73.3441 22.27 73.4441 22.03 73.6441 21.83C73.8641 21.61 74.1141 21.5 74.3941 21.5H83.3341C85.7741 21.5 87.6541 22.19 88.9741 23.57C90.0941 24.69 90.6541 26.1 90.6541 27.8C90.6541 29.66 90.1141 31.11 89.0341 32.15ZM77.6941 34.55V39.29H84.0841C85.2441 39.29 86.0941 39.08 86.6341 38.66C87.1141 38.28 87.3541 37.75 87.3541 37.07C87.3541 36.37 87.1041 35.8 86.6041 35.36C86.0041 34.82 85.0841 34.55 83.8441 34.55H77.6941ZM86.0941 29.09C86.2341 28.81 86.3041 28.49 86.3041 28.13C86.3041 27.69 86.2541 27.36 86.1541 27.14C86.0541 26.88 85.9241 26.66 85.7641 26.48C85.2641 25.98 84.5341 25.73 83.5741 25.73H77.6941V30.41H83.3341C83.8141 30.41 84.2141 30.37 84.5341 30.29C84.8541 30.21 85.1141 30.11 85.3141 29.99C85.5341 29.85 85.7041 29.7 85.8241 29.54C85.9441 29.38 86.0341 29.23 86.0941 29.09ZM116.315 32.63C117.175 33.17 117.825 33.83 118.265 34.61C118.725 35.39 118.955 36.26 118.955 37.22C118.955 39.48 118.095 41.21 116.375 42.41C115.775 42.85 115.075 43.2 114.275 43.46C113.495 43.72 112.625 43.9 111.665 44H111.545C111.265 44 111.035 43.91 110.855 43.73C110.615 43.53 110.495 43.27 110.495 42.95V40.79C110.495 40.51 110.585 40.28 110.765 40.1C110.945 39.9 111.165 39.78 111.425 39.74C112.205 39.66 112.805 39.52 113.225 39.32C113.645 39.1 113.955 38.87 114.155 38.63C114.355 38.39 114.465 38.15 114.485 37.91C114.525 37.67 114.545 37.47 114.545 37.31C114.545 36.87 114.365 36.53 114.005 36.29C113.425 35.89 112.675 35.55 111.755 35.27C111.675 35.25 111.605 35.23 111.545 35.21C111.485 35.19 111.425 35.17 111.365 35.15L111.275 35.12C110.835 35 110.385 34.88 109.925 34.76C109.465 34.64 108.995 34.53 108.515 34.43C108.335 34.39 108.145 34.35 107.945 34.31C107.745 34.25 107.535 34.19 107.315 34.13C106.915 34.03 106.515 33.92 106.115 33.8C105.735 33.66 105.375 33.52 105.035 33.38C103.855 32.88 102.885 32.25 102.125 31.49C101.245 30.61 100.805 29.45 100.805 28.01C100.805 26.03 101.565 24.42 103.085 23.18C104.125 22.3 105.585 21.74 107.465 21.5C107.785 21.46 108.065 21.55 108.305 21.77C108.525 21.99 108.635 22.25 108.635 22.55V24.71C108.635 24.97 108.555 25.2 108.395 25.4C108.235 25.6 108.025 25.72 107.765 25.76C107.605 25.78 107.465 25.8 107.345 25.82C107.225 25.84 107.115 25.87 107.015 25.91C106.435 26.13 106.015 26.35 105.755 26.57C105.535 26.77 105.375 26.98 105.275 27.2C105.175 27.54 105.125 27.86 105.125 28.16C105.125 28.2 105.135 28.26 105.155 28.34C105.175 28.42 105.255 28.53 105.395 28.67C105.675 28.95 106.085 29.2 106.625 29.42C106.805 29.5 107.005 29.58 107.225 29.66C107.445 29.72 107.665 29.79 107.885 29.87C108.025 29.91 108.155 29.95 108.275 29.99C108.415 30.01 108.555 30.04 108.695 30.08C109.115 30.18 109.535 30.29 109.955 30.41C110.375 30.51 110.805 30.61 111.245 30.71C111.405 30.75 111.535 30.78 111.635 30.8L111.815 30.86C112.215 30.96 112.575 31.06 112.895 31.16C113.235 31.26 113.555 31.36 113.855 31.46C114.795 31.78 115.615 32.17 116.315 32.63ZM111.305 25.85C111.065 25.79 110.865 25.67 110.705 25.49C110.565 25.29 110.495 25.06 110.495 24.8V22.61C110.495 22.29 110.625 22.02 110.885 21.8C111.125 21.6 111.405 21.53 111.725 21.59C113.485 21.87 114.915 22.47 116.015 23.39C117.515 24.63 118.315 26.21 118.415 28.13C118.435 28.41 118.345 28.67 118.145 28.91C117.925 29.13 117.665 29.24 117.365 29.24H115.025C114.765 29.24 114.535 29.16 114.335 29C114.155 28.82 114.045 28.59 114.005 28.31C113.965 28.13 113.905 27.93 113.825 27.71C113.765 27.47 113.645 27.24 113.465 27.02C113.305 26.8 113.065 26.59 112.745 26.39C112.445 26.19 112.045 26.02 111.545 25.88C111.485 25.88 111.445 25.87 111.425 25.85H111.305ZM107.795 39.62C108.055 39.66 108.255 39.78 108.395 39.98C108.555 40.18 108.635 40.4 108.635 40.64V42.86C108.635 43.2 108.515 43.47 108.275 43.67C108.075 43.83 107.845 43.91 107.585 43.91H107.435C105.575 43.63 104.045 43.02 102.845 42.08C101.285 40.84 100.405 39.11 100.205 36.89C100.165 36.57 100.255 36.3 100.475 36.08C100.675 35.84 100.935 35.72 101.255 35.72H103.625C103.905 35.72 104.145 35.82 104.345 36.02C104.545 36.2 104.655 36.43 104.675 36.71C104.735 37.71 105.225 38.48 106.145 39.02C106.385 39.16 106.635 39.28 106.895 39.38C107.175 39.46 107.475 39.54 107.795 39.62ZM137.656 21.5C137.936 21.5 138.176 21.61 138.376 21.83C138.576 22.03 138.676 22.27 138.676 22.55V24.71C138.676 24.99 138.576 25.24 138.376 25.46C138.176 25.66 137.936 25.76 137.656 25.76H131.746V42.47C131.746 42.75 131.636 43 131.416 43.22C131.216 43.42 130.976 43.52 130.696 43.52H128.446C128.146 43.52 127.896 43.42 127.696 43.22C127.496 43 127.396 42.75 127.396 42.47V25.76H121.486C121.206 25.76 120.956 25.66 120.736 25.46C120.536 25.24 120.436 24.99 120.436 24.71V22.55C120.436 22.27 120.536 22.03 120.736 21.83C120.956 21.61 121.206 21.5 121.486 21.5H137.656ZM159.278 21.5C159.558 21.5 159.798 21.61 159.998 21.83C160.218 22.03 160.328 22.27 160.328 22.55V33.89C160.328 36.81 159.438 39.19 157.658 41.03C155.878 42.85 153.588 43.76 150.788 43.76C148.008 43.76 145.728 42.85 143.948 41.03C142.168 39.19 141.278 36.81 141.278 33.89V22.55C141.278 22.27 141.378 22.03 141.578 21.83C141.798 21.61 142.048 21.5 142.328 21.5H144.578C144.858 21.5 145.098 21.61 145.298 21.83C145.518 22.03 145.628 22.27 145.628 22.55V33.95C145.628 35.81 146.158 37.23 147.218 38.21C148.118 39.05 149.308 39.47 150.788 39.47C152.248 39.47 153.448 39.05 154.388 38.21C155.448 37.21 155.978 35.79 155.978 33.95V22.55C155.978 22.27 156.078 22.03 156.278 21.83C156.478 21.61 156.718 21.5 156.998 21.5H159.278ZM178.215 22.25C179.455 22.77 180.545 23.51 181.485 24.47C183.565 26.59 184.605 29.27 184.605 32.51C184.605 35.75 183.565 38.43 181.485 40.55C180.545 41.51 179.455 42.25 178.215 42.77C177.015 43.27 175.745 43.52 174.405 43.52H166.005C165.725 43.52 165.475 43.42 165.255 43.22C165.055 43 164.955 42.75 164.955 42.47V22.55C164.955 22.27 165.055 22.03 165.255 21.83C165.475 21.61 165.725 21.5 166.005 21.5H174.405C175.065 21.5 175.715 21.57 176.355 21.71C176.995 21.83 177.615 22.01 178.215 22.25ZM169.305 39.29H174.315C176.075 39.29 177.505 38.64 178.605 37.34C179.705 36.06 180.255 34.45 180.255 32.51C180.255 30.57 179.705 28.96 178.605 27.68C177.505 26.38 176.075 25.73 174.315 25.73H169.305V39.29ZM191.546 21.5C191.826 21.5 192.066 21.61 192.266 21.83C192.486 22.03 192.596 22.27 192.596 22.55V42.47C192.596 42.75 192.486 43 192.266 43.22C192.066 43.42 191.826 43.52 191.546 43.52H189.296C189.016 43.52 188.766 43.42 188.546 43.22C188.346 43 188.246 42.75 188.246 42.47V22.55C188.246 22.27 188.346 22.03 188.546 21.83C188.766 21.61 189.016 21.5 189.296 21.5H191.546ZM207.346 21.5C210.626 21.5 213.316 22.6 215.416 24.8C217.476 26.96 218.506 29.61 218.506 32.75C218.506 35.89 217.476 38.54 215.416 40.7C213.316 42.9 210.626 44 207.346 44C204.066 44 201.376 42.9 199.276 40.7C197.216 38.54 196.186 35.89 196.186 32.75C196.186 29.61 197.216 26.96 199.276 24.8C201.376 22.6 204.066 21.5 207.346 21.5ZM207.346 39.71C209.406 39.71 211.066 39.05 212.326 37.73C213.546 36.45 214.156 34.79 214.156 32.75C214.156 30.73 213.546 29.07 212.326 27.77C211.066 26.45 209.406 25.79 207.346 25.79C205.286 25.79 203.626 26.45 202.366 27.77C201.146 29.07 200.536 30.73 200.536 32.75C200.536 34.79 201.146 36.45 202.366 37.73C203.626 39.05 205.286 39.71 207.346 39.71Z" fill="white"/>
<rect x="4.5" y="4.5" width="230" height="56" stroke="white"/>
<rect x="0.5" y="0.5" width="238" height="64" stroke="white"/>
</svg>
